# xmcd CD database file
#
# Track frame offsets:
#	150
#	14927
#	30445
#	46327
#	63215
#	74630
#	92471
#
# Disc length: 1440 seconds
#
# Revision: 0
# Processed by: cddbd v1.5.2PL0 Copyright (c) Steve Scherf et al.
# Submitted via: CDex 1.51
#
DISCID=59059e07
DTITLE=Pneumatisch Dance Trio - High Again
DYEAR=2007
DGENRE=Jazz
TTITLE0=Attenzione
TTITLE1=High Again
TTITLE2=Don't Phunk with my heart
TTITLE3=Push Up
TTITLE4=Crazy
TTITLE5=This Love
TTITLE6=Crazy Frog
EXTD=YEAR: 2007
EXTT0=
EXTT1=
EXTT2=
EXTT3=
EXTT4=
EXTT5=
EXTT6=
PLAYORDER=
